<?xml version="1.0" encoding="UTF-8"?>
<svg width="71px" height="144px" viewBox="0 0 71 144" version="1.1" xmlns="http://www.w3.org/2000/svg" xmlns:xlink="http://www.w3.org/1999/xlink">
    <!-- Generator: Sketch 59.1 (86144) - https://sketch.com -->
    <title>ratings_sprite</title>
    <desc>Created with Sketch.</desc>
    <g id="ratings_sprite" stroke="none" stroke-width="1" fill="none" fill-rule="evenodd">
        <rect id="Rectangle-Copy-7" fill-opacity="0.01" fill="#FFFFFF" x="0" y="0" width="84" height="24"></rect>
        <rect id="Rectangle-Copy-8" fill-opacity="0.01" fill="#FFFFFF" x="0" y="24" width="84" height="24"></rect>
        <rect id="Rectangle-Copy-9" fill-opacity="0.01" fill="#FFFFFF" x="0" y="48" width="84" height="24"></rect>
        <rect id="Rectangle-Copy-10" fill-opacity="0.01" fill="#FFFFFF" x="0" y="72" width="84" height="24"></rect>
        <rect id="Rectangle-Copy-11" fill-opacity="0.01" fill="#FFFFFF" x="0" y="96" width="84" height="24"></rect>
        <rect id="Rectangle-Copy-12" fill-opacity="0.01" fill="#FFFFFF" x="0" y="120" width="84" height="24"></rect>
        <g id="Star---On" transform="translate(0.000000, 7.000000)" fill="#131313" fill-rule="nonzero">
            <path d="M10.7617473,4.06426418 L6.98080731,4.06426418 L5.72814673,0.164483888 C5.6958895,0.0663377749 5.60426132,0 5.50095552,0 C5.39764971,0 5.30602153,0.0663377749 5.27376431,0.164483888 L4.02014713,4.06426418 L0.23920712,4.06426418 C0.136915528,4.06424537 0.0459379827,4.12929106 0.0128618342,4.22609296 C-0.0202143143,4.32289486 0.0119354997,4.43001662 0.0928481514,4.49260384 L3.10899081,6.82754527 L1.85393874,10.6869071 C1.82190714,10.7854585 1.85698367,10.893428 1.94081859,10.954333 C2.0246535,11.015238 2.13817196,11.0152208 2.2219885,10.9542906 L5.50047722,8.57247334 L8.77896594,10.9542906 C8.86278248,11.0152208 8.97630094,11.015238 9.06013585,10.954333 C9.14397077,10.893428 9.1790473,10.7854585 9.1470157,10.6869071 L7.89196363,6.82754527 L10.9071497,4.49260384 C10.9879248,4.43012458 11.0201187,4.32324659 10.9872925,4.22654429 C10.9544664,4.129842 10.8638633,4.06465294 10.7617473,4.06426418 Z" id="Star"></path>
        </g>
        <g id="Star---On" transform="translate(0.000000, 31.000000)" fill="#131313" fill-rule="nonzero">
            <path d="M10.7617473,4.06426418 L6.98080731,4.06426418 L5.72814673,0.164483888 C5.6958895,0.0663377749 5.60426132,0 5.50095552,0 C5.39764971,0 5.30602153,0.0663377749 5.27376431,0.164483888 L4.02014713,4.06426418 L0.23920712,4.06426418 C0.136915528,4.06424537 0.0459379827,4.12929106 0.0128618342,4.22609296 C-0.0202143143,4.32289486 0.0119354997,4.43001662 0.0928481514,4.49260384 L3.10899081,6.82754527 L1.85393874,10.6869071 C1.82190714,10.7854585 1.85698367,10.893428 1.94081859,10.954333 C2.0246535,11.015238 2.13817196,11.0152208 2.2219885,10.9542906 L5.50047722,8.57247334 L8.77896594,10.9542906 C8.86278248,11.0152208 8.97630094,11.015238 9.06013585,10.954333 C9.14397077,10.893428 9.1790473,10.7854585 9.1470157,10.6869071 L7.89196363,6.82754527 L10.9071497,4.49260384 C10.9879248,4.43012458 11.0201187,4.32324659 10.9872925,4.22654429 C10.9544664,4.129842 10.8638633,4.06465294 10.7617473,4.06426418 Z" id="Star"></path>
        </g>
        <g id="Star---On" transform="translate(0.000000, 55.000000)" fill="#131313" fill-rule="nonzero">
            <path d="M10.7617473,4.06426418 L6.98080731,4.06426418 L5.72814673,0.164483888 C5.6958895,0.0663377749 5.60426132,0 5.50095552,0 C5.39764971,0 5.30602153,0.0663377749 5.27376431,0.164483888 L4.02014713,4.06426418 L0.23920712,4.06426418 C0.136915528,4.06424537 0.0459379827,4.12929106 0.0128618342,4.22609296 C-0.0202143143,4.32289486 0.0119354997,4.43001662 0.0928481514,4.49260384 L3.10899081,6.82754527 L1.85393874,10.6869071 C1.82190714,10.7854585 1.85698367,10.893428 1.94081859,10.954333 C2.0246535,11.015238 2.13817196,11.0152208 2.2219885,10.9542906 L5.50047722,8.57247334 L8.77896594,10.9542906 C8.86278248,11.0152208 8.97630094,11.015238 9.06013585,10.954333 C9.14397077,10.893428 9.1790473,10.7854585 9.1470157,10.6869071 L7.89196363,6.82754527 L10.9071497,4.49260384 C10.9879248,4.43012458 11.0201187,4.32324659 10.9872925,4.22654429 C10.9544664,4.129842 10.8638633,4.06465294 10.7617473,4.06426418 Z" id="Star"></path>
        </g>
        <g id="Star---On" transform="translate(0.000000, 79.000000)" fill="#131313" fill-rule="nonzero">
            <path d="M10.7617473,4.06426418 L6.98080731,4.06426418 L5.72814673,0.164483888 C5.6958895,0.0663377749 5.60426132,0 5.50095552,0 C5.39764971,0 5.30602153,0.0663377749 5.27376431,0.164483888 L4.02014713,4.06426418 L0.23920712,4.06426418 C0.136915528,4.06424537 0.0459379827,4.12929106 0.0128618342,4.22609296 C-0.0202143143,4.32289486 0.0119354997,4.43001662 0.0928481514,4.49260384 L3.10899081,6.82754527 L1.85393874,10.6869071 C1.82190714,10.7854585 1.85698367,10.893428 1.94081859,10.954333 C2.0246535,11.015238 2.13817196,11.0152208 2.2219885,10.9542906 L5.50047722,8.57247334 L8.77896594,10.9542906 C8.86278248,11.0152208 8.97630094,11.015238 9.06013585,10.954333 C9.14397077,10.893428 9.1790473,10.7854585 9.1470157,10.6869071 L7.89196363,6.82754527 L10.9071497,4.49260384 C10.9879248,4.43012458 11.0201187,4.32324659 10.9872925,4.22654429 C10.9544664,4.129842 10.8638633,4.06465294 10.7617473,4.06426418 Z" id="Star"></path>
        </g>
        <g id="Star---On" transform="translate(0.000000, 103.000000)" fill="#131313" fill-rule="nonzero">
            <path d="M10.7617473,4.06426418 L6.98080731,4.06426418 L5.72814673,0.164483888 C5.6958895,0.0663377749 5.60426132,0 5.50095552,0 C5.39764971,0 5.30602153,0.0663377749 5.27376431,0.164483888 L4.02014713,4.06426418 L0.23920712,4.06426418 C0.136915528,4.06424537 0.0459379827,4.12929106 0.0128618342,4.22609296 C-0.0202143143,4.32289486 0.0119354997,4.43001662 0.0928481514,4.49260384 L3.10899081,6.82754527 L1.85393874,10.6869071 C1.82190714,10.7854585 1.85698367,10.893428 1.94081859,10.954333 C2.0246535,11.015238 2.13817196,11.0152208 2.2219885,10.9542906 L5.50047722,8.57247334 L8.77896594,10.9542906 C8.86278248,11.0152208 8.97630094,11.015238 9.06013585,10.954333 C9.14397077,10.893428 9.1790473,10.7854585 9.1470157,10.6869071 L7.89196363,6.82754527 L10.9071497,4.49260384 C10.9879248,4.43012458 11.0201187,4.32324659 10.9872925,4.22654429 C10.9544664,4.129842 10.8638633,4.06465294 10.7617473,4.06426418 Z" id="Star"></path>
        </g>
        <g id="Star---On" transform="translate(30.000000, 7.000000)" fill="#131313" fill-rule="nonzero">
            <path d="M10.7617473,4.06426418 L6.98080731,4.06426418 L5.72814673,0.164483888 C5.6958895,0.0663377749 5.60426132,0 5.50095552,0 C5.39764971,0 5.30602153,0.0663377749 5.27376431,0.164483888 L4.02014713,4.06426418 L0.23920712,4.06426418 C0.136915528,4.06424537 0.0459379827,4.12929106 0.0128618342,4.22609296 C-0.0202143143,4.32289486 0.0119354997,4.43001662 0.0928481514,4.49260384 L3.10899081,6.82754527 L1.85393874,10.6869071 C1.82190714,10.7854585 1.85698367,10.893428 1.94081859,10.954333 C2.0246535,11.015238 2.13817196,11.0152208 2.2219885,10.9542906 L5.50047722,8.57247334 L8.77896594,10.9542906 C8.86278248,11.0152208 8.97630094,11.015238 9.06013585,10.954333 C9.14397077,10.893428 9.1790473,10.7854585 9.1470157,10.6869071 L7.89196363,6.82754527 L10.9071497,4.49260384 C10.9879248,4.43012458 11.0201187,4.32324659 10.9872925,4.22654429 C10.9544664,4.129842 10.8638633,4.06465294 10.7617473,4.06426418 Z" id="Star"></path>
        </g>
        <g id="Star---On" transform="translate(30.000000, 31.000000)" fill="#131313" fill-rule="nonzero">
            <path d="M10.7617473,4.06426418 L6.98080731,4.06426418 L5.72814673,0.164483888 C5.6958895,0.0663377749 5.60426132,0 5.50095552,0 C5.39764971,0 5.30602153,0.0663377749 5.27376431,0.164483888 L4.02014713,4.06426418 L0.23920712,4.06426418 C0.136915528,4.06424537 0.0459379827,4.12929106 0.0128618342,4.22609296 C-0.0202143143,4.32289486 0.0119354997,4.43001662 0.0928481514,4.49260384 L3.10899081,6.82754527 L1.85393874,10.6869071 C1.82190714,10.7854585 1.85698367,10.893428 1.94081859,10.954333 C2.0246535,11.015238 2.13817196,11.0152208 2.2219885,10.9542906 L5.50047722,8.57247334 L8.77896594,10.9542906 C8.86278248,11.0152208 8.97630094,11.015238 9.06013585,10.954333 C9.14397077,10.893428 9.1790473,10.7854585 9.1470157,10.6869071 L7.89196363,6.82754527 L10.9071497,4.49260384 C10.9879248,4.43012458 11.0201187,4.32324659 10.9872925,4.22654429 C10.9544664,4.129842 10.8638633,4.06465294 10.7617473,4.06426418 Z" id="Star"></path>
        </g>
        <g id="Star---On" transform="translate(30.000000, 55.000000)" fill="#131313" fill-rule="nonzero">
            <path d="M10.7617473,4.06426418 L6.98080731,4.06426418 L5.72814673,0.164483888 C5.6958895,0.0663377749 5.60426132,0 5.50095552,0 C5.39764971,0 5.30602153,0.0663377749 5.27376431,0.164483888 L4.02014713,4.06426418 L0.23920712,4.06426418 C0.136915528,4.06424537 0.0459379827,4.12929106 0.0128618342,4.22609296 C-0.0202143143,4.32289486 0.0119354997,4.43001662 0.0928481514,4.49260384 L3.10899081,6.82754527 L1.85393874,10.6869071 C1.82190714,10.7854585 1.85698367,10.893428 1.94081859,10.954333 C2.0246535,11.015238 2.13817196,11.0152208 2.2219885,10.9542906 L5.50047722,8.57247334 L8.77896594,10.9542906 C8.86278248,11.0152208 8.97630094,11.015238 9.06013585,10.954333 C9.14397077,10.893428 9.1790473,10.7854585 9.1470157,10.6869071 L7.89196363,6.82754527 L10.9071497,4.49260384 C10.9879248,4.43012458 11.0201187,4.32324659 10.9872925,4.22654429 C10.9544664,4.129842 10.8638633,4.06465294 10.7617473,4.06426418 Z" id="Star"></path>
        </g>
        <g id="Star---On" transform="translate(15.000000, 7.000000)" fill="#131313" fill-rule="nonzero">
            <path d="M10.7617473,4.06426418 L6.98080731,4.06426418 L5.72814673,0.164483888 C5.6958895,0.0663377749 5.60426132,0 5.50095552,0 C5.39764971,0 5.30602153,0.0663377749 5.27376431,0.164483888 L4.02014713,4.06426418 L0.23920712,4.06426418 C0.136915528,4.06424537 0.0459379827,4.12929106 0.0128618342,4.22609296 C-0.0202143143,4.32289486 0.0119354997,4.43001662 0.0928481514,4.49260384 L3.10899081,6.82754527 L1.85393874,10.6869071 C1.82190714,10.7854585 1.85698367,10.893428 1.94081859,10.954333 C2.0246535,11.015238 2.13817196,11.0152208 2.2219885,10.9542906 L5.50047722,8.57247334 L8.77896594,10.9542906 C8.86278248,11.0152208 8.97630094,11.015238 9.06013585,10.954333 C9.14397077,10.893428 9.1790473,10.7854585 9.1470157,10.6869071 L7.89196363,6.82754527 L10.9071497,4.49260384 C10.9879248,4.43012458 11.0201187,4.32324659 10.9872925,4.22654429 C10.9544664,4.129842 10.8638633,4.06465294 10.7617473,4.06426418 Z" id="Star"></path>
        </g>
        <g id="Star---On" transform="translate(15.000000, 31.000000)" fill="#131313" fill-rule="nonzero">
            <path d="M10.7617473,4.06426418 L6.98080731,4.06426418 L5.72814673,0.164483888 C5.6958895,0.0663377749 5.60426132,0 5.50095552,0 C5.39764971,0 5.30602153,0.0663377749 5.27376431,0.164483888 L4.02014713,4.06426418 L0.23920712,4.06426418 C0.136915528,4.06424537 0.0459379827,4.12929106 0.0128618342,4.22609296 C-0.0202143143,4.32289486 0.0119354997,4.43001662 0.0928481514,4.49260384 L3.10899081,6.82754527 L1.85393874,10.6869071 C1.82190714,10.7854585 1.85698367,10.893428 1.94081859,10.954333 C2.0246535,11.015238 2.13817196,11.0152208 2.2219885,10.9542906 L5.50047722,8.57247334 L8.77896594,10.9542906 C8.86278248,11.0152208 8.97630094,11.015238 9.06013585,10.954333 C9.14397077,10.893428 9.1790473,10.7854585 9.1470157,10.6869071 L7.89196363,6.82754527 L10.9071497,4.49260384 C10.9879248,4.43012458 11.0201187,4.32324659 10.9872925,4.22654429 C10.9544664,4.129842 10.8638633,4.06465294 10.7617473,4.06426418 Z" id="Star"></path>
        </g>
        <g id="Star---On" transform="translate(15.000000, 55.000000)" fill="#131313" fill-rule="nonzero">
            <path d="M10.7617473,4.06426418 L6.98080731,4.06426418 L5.72814673,0.164483888 C5.6958895,0.0663377749 5.60426132,0 5.50095552,0 C5.39764971,0 5.30602153,0.0663377749 5.27376431,0.164483888 L4.02014713,4.06426418 L0.23920712,4.06426418 C0.136915528,4.06424537 0.0459379827,4.12929106 0.0128618342,4.22609296 C-0.0202143143,4.32289486 0.0119354997,4.43001662 0.0928481514,4.49260384 L3.10899081,6.82754527 L1.85393874,10.6869071 C1.82190714,10.7854585 1.85698367,10.893428 1.94081859,10.954333 C2.0246535,11.015238 2.13817196,11.0152208 2.2219885,10.9542906 L5.50047722,8.57247334 L8.77896594,10.9542906 C8.86278248,11.0152208 8.97630094,11.015238 9.06013585,10.954333 C9.14397077,10.893428 9.1790473,10.7854585 9.1470157,10.6869071 L7.89196363,6.82754527 L10.9071497,4.49260384 C10.9879248,4.43012458 11.0201187,4.32324659 10.9872925,4.22654429 C10.9544664,4.129842 10.8638633,4.06465294 10.7617473,4.06426418 Z" id="Star"></path>
        </g>
        <g id="Star---On" transform="translate(15.000000, 79.000000)" fill="#131313" fill-rule="nonzero">
            <path d="M10.7617473,4.06426418 L6.98080731,4.06426418 L5.72814673,0.164483888 C5.6958895,0.0663377749 5.60426132,0 5.50095552,0 C5.39764971,0 5.30602153,0.0663377749 5.27376431,0.164483888 L4.02014713,4.06426418 L0.23920712,4.06426418 C0.136915528,4.06424537 0.0459379827,4.12929106 0.0128618342,4.22609296 C-0.0202143143,4.32289486 0.0119354997,4.43001662 0.0928481514,4.49260384 L3.10899081,6.82754527 L1.85393874,10.6869071 C1.82190714,10.7854585 1.85698367,10.893428 1.94081859,10.954333 C2.0246535,11.015238 2.13817196,11.0152208 2.2219885,10.9542906 L5.50047722,8.57247334 L8.77896594,10.9542906 C8.86278248,11.0152208 8.97630094,11.015238 9.06013585,10.954333 C9.14397077,10.893428 9.1790473,10.7854585 9.1470157,10.6869071 L7.89196363,6.82754527 L10.9071497,4.49260384 C10.9879248,4.43012458 11.0201187,4.32324659 10.9872925,4.22654429 C10.9544664,4.129842 10.8638633,4.06465294 10.7617473,4.06426418 Z" id="Star"></path>
        </g>
        <g id="Star---On" transform="translate(45.000000, 7.000000)" fill="#131313" fill-rule="nonzero">
            <path d="M10.7617473,4.06426418 L6.98080731,4.06426418 L5.72814673,0.164483888 C5.6958895,0.0663377749 5.60426132,0 5.50095552,0 C5.39764971,0 5.30602153,0.0663377749 5.27376431,0.164483888 L4.02014713,4.06426418 L0.23920712,4.06426418 C0.136915528,4.06424537 0.0459379827,4.12929106 0.0128618342,4.22609296 C-0.0202143143,4.32289486 0.0119354997,4.43001662 0.0928481514,4.49260384 L3.10899081,6.82754527 L1.85393874,10.6869071 C1.82190714,10.7854585 1.85698367,10.893428 1.94081859,10.954333 C2.0246535,11.015238 2.13817196,11.0152208 2.2219885,10.9542906 L5.50047722,8.57247334 L8.77896594,10.9542906 C8.86278248,11.0152208 8.97630094,11.015238 9.06013585,10.954333 C9.14397077,10.893428 9.1790473,10.7854585 9.1470157,10.6869071 L7.89196363,6.82754527 L10.9071497,4.49260384 C10.9879248,4.43012458 11.0201187,4.32324659 10.9872925,4.22654429 C10.9544664,4.129842 10.8638633,4.06465294 10.7617473,4.06426418 Z" id="Star"></path>
        </g>
        <g id="Star---On" transform="translate(45.000000, 31.000000)" fill="#131313" fill-rule="nonzero">
            <path d="M10.7617473,4.06426418 L6.98080731,4.06426418 L5.72814673,0.164483888 C5.6958895,0.0663377749 5.60426132,0 5.50095552,0 C5.39764971,0 5.30602153,0.0663377749 5.27376431,0.164483888 L4.02014713,4.06426418 L0.23920712,4.06426418 C0.136915528,4.06424537 0.0459379827,4.12929106 0.0128618342,4.22609296 C-0.0202143143,4.32289486 0.0119354997,4.43001662 0.0928481514,4.49260384 L3.10899081,6.82754527 L1.85393874,10.6869071 C1.82190714,10.7854585 1.85698367,10.893428 1.94081859,10.954333 C2.0246535,11.015238 2.13817196,11.0152208 2.2219885,10.9542906 L5.50047722,8.57247334 L8.77896594,10.9542906 C8.86278248,11.0152208 8.97630094,11.015238 9.06013585,10.954333 C9.14397077,10.893428 9.1790473,10.7854585 9.1470157,10.6869071 L7.89196363,6.82754527 L10.9071497,4.49260384 C10.9879248,4.43012458 11.0201187,4.32324659 10.9872925,4.22654429 C10.9544664,4.129842 10.8638633,4.06465294 10.7617473,4.06426418 Z" id="Star"></path>
        </g>
        <g id="Star---On" transform="translate(60.000000, 7.000000)" fill="#131313" fill-rule="nonzero">
            <path d="M10.7617473,4.06426418 L6.98080731,4.06426418 L5.72814673,0.164483888 C5.6958895,0.0663377749 5.60426132,0 5.50095552,0 C5.39764971,0 5.30602153,0.0663377749 5.27376431,0.164483888 L4.02014713,4.06426418 L0.23920712,4.06426418 C0.136915528,4.06424537 0.0459379827,4.12929106 0.0128618342,4.22609296 C-0.0202143143,4.32289486 0.0119354997,4.43001662 0.0928481514,4.49260384 L3.10899081,6.82754527 L1.85393874,10.6869071 C1.82190714,10.7854585 1.85698367,10.893428 1.94081859,10.954333 C2.0246535,11.015238 2.13817196,11.0152208 2.2219885,10.9542906 L5.50047722,8.57247334 L8.77896594,10.9542906 C8.86278248,11.0152208 8.97630094,11.015238 9.06013585,10.954333 C9.14397077,10.893428 9.1790473,10.7854585 9.1470157,10.6869071 L7.89196363,6.82754527 L10.9071497,4.49260384 C10.9879248,4.43012458 11.0201187,4.32324659 10.9872925,4.22654429 C10.9544664,4.129842 10.8638633,4.06465294 10.7617473,4.06426418 Z" id="Star"></path>
        </g>
        <g id="Star---Off" transform="translate(60.000000, 31.000000)" fill-rule="nonzero" stroke="#000000">
            <path d="M9.9979822,4.56426418 L6.61625249,4.56426418 L6.50476315,4.21717581 L5.50086533,1.09181341 L4.38461682,4.56426418 L4.02014713,4.56426418 L1.00220707,4.56426417 L3.69329399,6.64756429 L3.58448033,6.98217294 L2.5778015,10.0777719 L5.50047722,7.95445228 L5.7943582,8.16795638 L8.42315294,10.0777719 L7.3076782,6.64761887 L7.58582753,6.43222174 L9.9979822,4.56426418 Z" id="Star"></path>
        </g>
        <g id="Star---Off" transform="translate(60.000000, 79.000000)" fill-rule="nonzero" stroke="#000000">
            <path d="M9.9979822,4.56426418 L6.61625249,4.56426418 L6.50476315,4.21717581 L5.50086533,1.09181341 L4.38461682,4.56426418 L4.02014713,4.56426418 L1.00220707,4.56426417 L3.69329399,6.64756429 L3.58448033,6.98217294 L2.5778015,10.0777719 L5.50047722,7.95445228 L5.7943582,8.16795638 L8.42315294,10.0777719 L7.3076782,6.64761887 L7.58582753,6.43222174 L9.9979822,4.56426418 Z" id="Star"></path>
        </g>
        <g id="Star---Off" transform="translate(45.000000, 79.000000)" fill-rule="nonzero" stroke="#000000">
            <path d="M9.9979822,4.56426418 L6.61625249,4.56426418 L6.50476315,4.21717581 L5.50086533,1.09181341 L4.38461682,4.56426418 L4.02014713,4.56426418 L1.00220707,4.56426417 L3.69329399,6.64756429 L3.58448033,6.98217294 L2.5778015,10.0777719 L5.50047722,7.95445228 L5.7943582,8.16795638 L8.42315294,10.0777719 L7.3076782,6.64761887 L7.58582753,6.43222174 L9.9979822,4.56426418 Z" id="Star"></path>
        </g>
        <g id="Star---Off" transform="translate(30.000000, 79.000000)" fill-rule="nonzero" stroke="#000000">
            <path d="M9.9979822,4.56426418 L6.61625249,4.56426418 L6.50476315,4.21717581 L5.50086533,1.09181341 L4.38461682,4.56426418 L4.02014713,4.56426418 L1.00220707,4.56426417 L3.69329399,6.64756429 L3.58448033,6.98217294 L2.5778015,10.0777719 L5.50047722,7.95445228 L5.7943582,8.16795638 L8.42315294,10.0777719 L7.3076782,6.64761887 L7.58582753,6.43222174 L9.9979822,4.56426418 Z" id="Star"></path>
        </g>
        <g id="Star---Off" transform="translate(60.000000, 127.000000)" fill-rule="nonzero" stroke="#000000">
            <path d="M9.9979822,4.56426418 L6.61625249,4.56426418 L6.50476315,4.21717581 L5.50086533,1.09181341 L4.38461682,4.56426418 L4.02014713,4.56426418 L1.00220707,4.56426417 L3.69329399,6.64756429 L3.58448033,6.98217294 L2.5778015,10.0777719 L5.50047722,7.95445228 L5.7943582,8.16795638 L8.42315294,10.0777719 L7.3076782,6.64761887 L7.58582753,6.43222174 L9.9979822,4.56426418 Z" id="Star"></path>
        </g>
        <g id="Star---Off" transform="translate(45.000000, 127.000000)" fill-rule="nonzero" stroke="#000000">
            <path d="M9.9979822,4.56426418 L6.61625249,4.56426418 L6.50476315,4.21717581 L5.50086533,1.09181341 L4.38461682,4.56426418 L4.02014713,4.56426418 L1.00220707,4.56426417 L3.69329399,6.64756429 L3.58448033,6.98217294 L2.5778015,10.0777719 L5.50047722,7.95445228 L5.7943582,8.16795638 L8.42315294,10.0777719 L7.3076782,6.64761887 L7.58582753,6.43222174 L9.9979822,4.56426418 Z" id="Star"></path>
        </g>
        <g id="Star---Off" transform="translate(30.000000, 127.000000)" fill-rule="nonzero" stroke="#000000">
            <path d="M9.9979822,4.56426418 L6.61625249,4.56426418 L6.50476315,4.21717581 L5.50086533,1.09181341 L4.38461682,4.56426418 L4.02014713,4.56426418 L1.00220707,4.56426417 L3.69329399,6.64756429 L3.58448033,6.98217294 L2.5778015,10.0777719 L5.50047722,7.95445228 L5.7943582,8.16795638 L8.42315294,10.0777719 L7.3076782,6.64761887 L7.58582753,6.43222174 L9.9979822,4.56426418 Z" id="Star"></path>
        </g>
        <g id="Star---Off" transform="translate(15.000000, 127.000000)" fill-rule="nonzero" stroke="#000000">
            <path d="M9.9979822,4.56426418 L6.61625249,4.56426418 L6.50476315,4.21717581 L5.50086533,1.09181341 L4.38461682,4.56426418 L4.02014713,4.56426418 L1.00220707,4.56426417 L3.69329399,6.64756429 L3.58448033,6.98217294 L2.5778015,10.0777719 L5.50047722,7.95445228 L5.7943582,8.16795638 L8.42315294,10.0777719 L7.3076782,6.64761887 L7.58582753,6.43222174 L9.9979822,4.56426418 Z" id="Star"></path>
        </g>
        <g id="Star---Off" transform="translate(0.000000, 127.000000)" fill-rule="nonzero" stroke="#000000">
            <path d="M9.9979822,4.56426418 L6.61625249,4.56426418 L6.50476315,4.21717581 L5.50086533,1.09181341 L4.38461682,4.56426418 L4.02014713,4.56426418 L1.00220707,4.56426417 L3.69329399,6.64756429 L3.58448033,6.98217294 L2.5778015,10.0777719 L5.50047722,7.95445228 L5.7943582,8.16795638 L8.42315294,10.0777719 L7.3076782,6.64761887 L7.58582753,6.43222174 L9.9979822,4.56426418 Z" id="Star"></path>
        </g>
        <g id="Star---Off" transform="translate(60.000000, 55.000000)" fill-rule="nonzero" stroke="#000000">
            <path d="M9.9979822,4.56426418 L6.61625249,4.56426418 L6.50476315,4.21717581 L5.50086533,1.09181341 L4.38461682,4.56426418 L4.02014713,4.56426418 L1.00220707,4.56426417 L3.69329399,6.64756429 L3.58448033,6.98217294 L2.5778015,10.0777719 L5.50047722,7.95445228 L5.7943582,8.16795638 L8.42315294,10.0777719 L7.3076782,6.64761887 L7.58582753,6.43222174 L9.9979822,4.56426418 Z" id="Star"></path>
        </g>
        <g id="Star---Off" transform="translate(45.000000, 55.000000)" fill-rule="nonzero" stroke="#000000">
            <path d="M9.9979822,4.56426418 L6.61625249,4.56426418 L6.50476315,4.21717581 L5.50086533,1.09181341 L4.38461682,4.56426418 L4.02014713,4.56426418 L1.00220707,4.56426417 L3.69329399,6.64756429 L3.58448033,6.98217294 L2.5778015,10.0777719 L5.50047722,7.95445228 L5.7943582,8.16795638 L8.42315294,10.0777719 L7.3076782,6.64761887 L7.58582753,6.43222174 L9.9979822,4.56426418 Z" id="Star"></path>
        </g>
        <g id="Star---Off" transform="translate(60.000000, 103.000000)" fill-rule="nonzero" stroke="#000000">
            <path d="M9.9979822,4.56426418 L6.61625249,4.56426418 L6.50476315,4.21717581 L5.50086533,1.09181341 L4.38461682,4.56426418 L4.02014713,4.56426418 L1.00220707,4.56426417 L3.69329399,6.64756429 L3.58448033,6.98217294 L2.5778015,10.0777719 L5.50047722,7.95445228 L5.7943582,8.16795638 L8.42315294,10.0777719 L7.3076782,6.64761887 L7.58582753,6.43222174 L9.9979822,4.56426418 Z" id="Star"></path>
        </g>
        <g id="Star---Off" transform="translate(45.000000, 103.000000)" fill-rule="nonzero" stroke="#000000">
            <path d="M9.9979822,4.56426418 L6.61625249,4.56426418 L6.50476315,4.21717581 L5.50086533,1.09181341 L4.38461682,4.56426418 L4.02014713,4.56426418 L1.00220707,4.56426417 L3.69329399,6.64756429 L3.58448033,6.98217294 L2.5778015,10.0777719 L5.50047722,7.95445228 L5.7943582,8.16795638 L8.42315294,10.0777719 L7.3076782,6.64761887 L7.58582753,6.43222174 L9.9979822,4.56426418 Z" id="Star"></path>
        </g>
        <g id="Star---Off" transform="translate(30.000000, 103.000000)" fill-rule="nonzero" stroke="#000000">
            <path d="M9.9979822,4.56426418 L6.61625249,4.56426418 L6.50476315,4.21717581 L5.50086533,1.09181341 L4.38461682,4.56426418 L4.02014713,4.56426418 L1.00220707,4.56426417 L3.69329399,6.64756429 L3.58448033,6.98217294 L2.5778015,10.0777719 L5.50047722,7.95445228 L5.7943582,8.16795638 L8.42315294,10.0777719 L7.3076782,6.64761887 L7.58582753,6.43222174 L9.9979822,4.56426418 Z" id="Star"></path>
        </g>
        <g id="Star---Off" transform="translate(15.000000, 103.000000)" fill-rule="nonzero" stroke="#000000">
            <path d="M9.9979822,4.56426418 L6.61625249,4.56426418 L6.50476315,4.21717581 L5.50086533,1.09181341 L4.38461682,4.56426418 L4.02014713,4.56426418 L1.00220707,4.56426417 L3.69329399,6.64756429 L3.58448033,6.98217294 L2.5778015,10.0777719 L5.50047722,7.95445228 L5.7943582,8.16795638 L8.42315294,10.0777719 L7.3076782,6.64761887 L7.58582753,6.43222174 L9.9979822,4.56426418 Z" id="Star"></path>
        </g>
    </g>
</svg>